<?xml version="1.0" encoding="utf-8"?>
<!-- Generator: Adobe Illustrator 25.1.0, SVG Export Plug-In . SVG Version: 6.00 Build 0)  -->
<svg version="1.1"
	 id="レイヤー_1" xmlns:cc="http://creativecommons.org/ns#" xmlns:dc="http://purl.org/dc/elements/1.1/" xmlns:inkscape="http://www.inkscape.org/namespaces/inkscape" xmlns:rdf="http://www.w3.org/1999/02/22-rdf-syntax-ns#" xmlns:sodipodi="http://sodipodi.sourceforge.net/DTD/sodipodi-0.dtd" xmlns:svg="http://www.w3.org/2000/svg"
	 xmlns="http://www.w3.org/2000/svg" xmlns:xlink="http://www.w3.org/1999/xlink" x="0px" y="0px" viewBox="0 0 100 97"
	 style="enable-background:new 0 0 100 97;" xml:space="preserve">
<g transform="translate(0,-952.36218)">
	<path d="M22.9,959.3c0,0-0.1,0-0.1,0c-0.5,0.1-0.9,0.6-0.8,1.2c0,0.2,0.1,0.4,0.3,0.6l19.3,19.3l-10.3,11.3
		c-0.3,0.3-0.4,0.8-0.1,1.2c3.4,6,7.4,11.4,12.2,16.2c4.7,4.7,10.2,8.8,16.2,12.2c0.4,0.2,0.9,0.2,1.2-0.1l12-11
		c0.4-0.4,0.4-1,0.1-1.4c-0.4-0.4-1-0.4-1.4-0.1l0,0l-11.4,10.5c-5.7-3.2-10.8-7-15.2-11.4c-4.4-4.5-8.2-9.5-11.4-15.2L43.8,981
		c0.4-0.4,0.4-1,0-1.4l-20-20C23.5,959.4,23.2,959.3,22.9,959.3z M17.9,964.4c-0.2,0-0.4,0.1-0.6,0.3l-7.3,7.7c-1.9,2-2.9,4.8-2.9,8
		c0,10.6,8.5,27,23.3,41.7c14.8,14.8,31.1,23.3,41.7,23.3c3.2,0,6-1,8-2.9l12.7-12.3c0.4-0.4,0.4-1,0.1-1.4c0,0,0,0,0,0l-15-15
		c-0.4-0.4-1-0.4-1.4,0s-0.4,1,0,1.4l14.3,14.3L78.7,1041c-1.6,1.5-3.8,2.4-6.7,2.4c-9.5,0-25.8-8.2-40.3-22.7
		C17.2,1006.1,9,989.9,9,980.4c0-2.8,0.9-5.1,2.4-6.7l7.3-7.7c0.4-0.4,0.4-1,0-1.4C18.5,964.4,18.2,964.3,17.9,964.4z M71.8,969.4
		c-0.6,0.1-1,0.5-0.9,1.1s0.5,1,1.1,0.9h7.6l-22.3,22.3c-0.4,0.4-0.4,1,0,1.4s1,0.4,1.4,0l0,0L81,972.8v7.6c0,0.6,0.4,1,1,1
		s1-0.4,1-1c0,0,0,0,0,0v-10c0-0.6-0.4-1-1-1H72C71.9,969.4,71.9,969.4,71.8,969.4z"/>
</g>
</svg>
