<?xml version="1.0" encoding="utf-8"?>
<!-- Generator: Adobe Illustrator 25.1.0, SVG Export Plug-In . SVG Version: 6.00 Build 0)  -->
<svg version="1.1" xmlns="http://www.w3.org/2000/svg" xmlns:xlink="http://www.w3.org/1999/xlink" x="0px" y="0px"
	 viewBox="0 0 160.5 47.6" style="enable-background:new 0 0 160.5 47.6;" xml:space="preserve">
<style type="text/css">
	.st0{fill:#1466B2;}
	.st1{fill:#337AB7;}
</style>
<g id="レイヤー_1">
</g>
<g id="レイヤー_2">
	<g>
		<g>
			<path class="st0" d="M67.4,13h-0.9c-1.4,0-1.9,0.6-1.9,1.8v13.9c0,1.3,0.6,1.8,1.9,1.8h2.1c3.8,0,5.6-3,6.4-4.3l0.7,0.3l-1.8,4.8
				H58.8v-0.8h0.9c1.3,0,1.9-0.6,1.9-1.8V14.9c0-1.2-0.4-1.8-1.9-1.8h-0.9v-0.9h8.6V13z"/>
			<path class="st0" d="M76.6,31.4v-0.8h1c1.3,0,1.9-0.6,1.9-1.8V14.9c0-1.2-0.4-1.8-1.9-1.8h-1v-0.9h8.8V13h-1
				c-1.6,0-1.9,0.7-1.9,1.8v13.9c0,1.2,0.6,1.8,1.9,1.8h1v0.8H76.6z"/>
			<path class="st0" d="M102.6,17.1c-0.8-1.4-2.5-4-6.5-4h-1c-1.4,0-2.4,0.8-2.4,2.3v5.8h2.3c1.7,0,3-1.3,3-2.6v-0.7h0.8v7.4h-0.8
				v-0.7c0-1.1-1-2.6-2.6-2.6h-2.7v6.8c0,1.2,0.5,1.8,1.9,1.8h1.2v0.8h-9.1v-0.8h1.1c1.3,0,1.9-0.6,1.9-1.8V15.2
				c0-1.2-0.7-2.1-2.1-2.1h-0.9v-0.9h15l1.7,4.5L102.6,17.1z"/>
			<path class="st0" d="M104.7,12.2h14.1l1.7,4.3l-0.7,0.3c-2.1-2.6-3.3-3.8-6.6-3.8h-0.9c-1.5,0-1.9,0.6-1.9,1.8v6.3h2.3
				c1.5,0,3.2-0.6,3.2-2.6v-0.6h0.9v7.5H116v-0.7c0-1.2-0.9-2.7-2.9-2.7h-2.6v6.7c0,1.2,0.5,1.8,1.9,1.8h1.4c3.6,0,5.9-3,6.7-4.1
				l0.6,0.4l-1.7,4.6h-14.6v-0.8h0.8c1.3,0,1.9-0.6,1.9-1.8V14.9c0-1.2-0.5-1.8-1.9-1.8h-0.8V12.2z"/>
			<path class="st0" d="M135.6,31.4l-4.7-9.3h-2.3v6.7c0,1.2,0.5,1.8,1.9,1.8h0.8v0.8h-8.5v-0.8h0.8c1.3,0,1.9-0.5,1.9-1.8V14.9
				c0-1.2-0.4-1.8-1.9-1.8h-0.8v-0.9h10.4c4.1,0,6.4,1.8,6.4,4.6c0,1.6-0.8,2.8-1.7,3.6c-1.2,1-2.4,1.3-3.5,1.5l3.1,6.2
				c1.1,2.2,2,2.5,3.1,2.5h0.4v0.8H135.6z M132.2,13h-1.8c-1.4,0-1.9,0.6-1.9,1.8v6.4h3.7c2.7,0,3.9-2,3.9-4.4
				C136.1,14.3,134.8,13,132.2,13z"/>
			<path class="st0" d="M142.6,12.2h14.1l1.7,4.3l-0.7,0.3c-2.1-2.6-3.3-3.8-6.6-3.8h-0.9c-1.5,0-1.9,0.6-1.9,1.8v6.3h2.3
				c1.5,0,3.2-0.6,3.2-2.6v-0.6h0.9v7.5h-0.9v-0.7c0-1.2-0.9-2.7-2.9-2.7h-2.5v6.7c0,1.2,0.5,1.8,1.9,1.8h1.4c3.6,0,5.9-3,6.7-4.1
				l0.6,0.4l-1.7,4.6h-14.6v-0.8h0.8c1.3,0,1.9-0.6,1.9-1.8V14.9c0-1.2-0.5-1.8-1.9-1.8h-0.8V12.2z"/>
		</g>
		<g>
			<path class="st1" d="M67.4,13h-0.9c-1.4,0-1.9,0.6-1.9,1.8v13.9c0,1.3,0.6,1.8,1.9,1.8h2.1c3.8,0,5.6-3,6.4-4.3l0.7,0.3l-1.8,4.8
				H58.8v-0.8h0.9c1.3,0,1.9-0.6,1.9-1.8V14.9c0-1.2-0.4-1.8-1.9-1.8h-0.9v-0.9h8.6V13z"/>
			<path class="st1" d="M76.6,31.4v-0.8h1c1.3,0,1.9-0.6,1.9-1.8V14.9c0-1.2-0.4-1.8-1.9-1.8h-1v-0.9h8.8V13h-1
				c-1.6,0-1.9,0.7-1.9,1.8v13.9c0,1.2,0.6,1.8,1.9,1.8h1v0.8H76.6z"/>
			<path class="st1" d="M102.6,17.1c-0.8-1.4-2.5-4-6.5-4h-1c-1.4,0-2.4,0.8-2.4,2.3v5.8h2.3c1.7,0,3-1.3,3-2.6v-0.7h0.8v7.4h-0.8
				v-0.7c0-1.1-1-2.6-2.6-2.6h-2.7v6.8c0,1.2,0.5,1.8,1.9,1.8h1.2v0.8h-9.1v-0.8h1.1c1.3,0,1.9-0.6,1.9-1.8V15.2
				c0-1.2-0.7-2.1-2.1-2.1h-0.9v-0.9h15l1.7,4.5L102.6,17.1z"/>
			<path class="st1" d="M104.7,12.2h14.1l1.7,4.3l-0.7,0.3c-2.1-2.6-3.3-3.8-6.6-3.8h-0.9c-1.5,0-1.9,0.6-1.9,1.8v6.3h2.3
				c1.5,0,3.2-0.6,3.2-2.6v-0.6h0.9v7.5H116v-0.7c0-1.2-0.9-2.7-2.9-2.7h-2.6v6.7c0,1.2,0.5,1.8,1.9,1.8h1.4c3.6,0,5.9-3,6.7-4.1
				l0.6,0.4l-1.7,4.6h-14.6v-0.8h0.8c1.3,0,1.9-0.6,1.9-1.8V14.9c0-1.2-0.5-1.8-1.9-1.8h-0.8V12.2z"/>
			<path class="st1" d="M135.6,31.4l-4.7-9.3h-2.3v6.7c0,1.2,0.5,1.8,1.9,1.8h0.8v0.8h-8.5v-0.8h0.8c1.3,0,1.9-0.5,1.9-1.8V14.9
				c0-1.2-0.4-1.8-1.9-1.8h-0.8v-0.9h10.4c4.1,0,6.4,1.8,6.4,4.6c0,1.6-0.8,2.8-1.7,3.6c-1.2,1-2.4,1.3-3.5,1.5l3.1,6.2
				c1.1,2.2,2,2.5,3.1,2.5h0.4v0.8H135.6z M132.2,13h-1.8c-1.4,0-1.9,0.6-1.9,1.8v6.4h3.7c2.7,0,3.9-2,3.9-4.4
				C136.1,14.3,134.8,13,132.2,13z"/>
			<path class="st1" d="M142.6,12.2h14.1l1.7,4.3l-0.7,0.3c-2.1-2.6-3.3-3.8-6.6-3.8h-0.9c-1.5,0-1.9,0.6-1.9,1.8v6.3h2.3
				c1.5,0,3.2-0.6,3.2-2.6v-0.6h0.9v7.5h-0.9v-0.7c0-1.2-0.9-2.7-2.9-2.7h-2.5v6.7c0,1.2,0.5,1.8,1.9,1.8h1.4c3.6,0,5.9-3,6.7-4.1
				l0.6,0.4l-1.7,4.6h-14.6v-0.8h0.8c1.3,0,1.9-0.6,1.9-1.8V14.9c0-1.2-0.5-1.8-1.9-1.8h-0.8V12.2z"/>
		</g>
	</g>
	<g>
		<g>
			<path class="st0" d="M60.1,44.3h0.2c0.6,0,0.8-0.3,0.8-0.8V37c0-0.2-0.1-0.5-0.4-0.5c-0.1,0-0.1,0-0.4,0.1l-0.1-0.2l2-0.5v7.7
				c0,0.8,0.4,0.8,0.9,0.8v0.4h-3.1V44.3z"/>
			<path class="st0" d="M63.7,44.3h0.4c0.4,0,0.6-0.3,0.6-0.6v-3.5c0-0.3-0.1-0.6-0.4-0.6c0,0-0.2,0-0.4,0.1l-0.1-0.3l2.1-0.5v4.8
				c0,0.4,0.2,0.6,0.6,0.6h0.4v0.4h-3.2V44.3z M66.1,36.7c0,0.5-0.4,0.8-0.8,0.8c-0.5,0-0.8-0.4-0.8-0.8c0-0.5,0.4-0.8,0.8-0.8
				C65.7,35.8,66.1,36.2,66.1,36.7z"/>
			<path class="st0" d="M69.6,39.1h1.5v0.4h-1.5v4c0,0.6,0.2,0.8,0.8,0.8h0.3v0.4h-3.3v-0.4h0.3c0.5,0,0.8-0.2,0.8-0.8v-4h-1v-0.4h1
				v-0.2c0-2.3,1.3-3,2.4-3c0.5,0,1,0.1,1,0.8c0,0.4-0.2,0.7-0.7,0.7c-0.5,0-0.6-0.3-0.7-0.7c0-0.1-0.1-0.3-0.3-0.3
				c-0.4,0-0.6,0.6-0.6,1.4V39.1z"/>
			<path class="st0" d="M74.5,44.9c-1.4,0-2.6-1.1-2.6-2.9c0-1.8,1.2-3.2,2.5-3.2c0.6,0,1.1,0.3,1.4,0.6c0.8,0.8,0.8,1.7,0.8,2.1
				h-3.5c-0.1,2,0.9,2.7,1.7,2.7c0.8,0,1.5-0.8,1.7-1.2l0.3,0.2C76.5,43.8,75.9,44.9,74.5,44.9z M74.4,39.2c-1.1,0-1.2,1.4-1.3,1.9
				h2.2C75.4,40.5,75.3,39.2,74.4,39.2z"/>
			<path class="st0" d="M77.4,42.4v-1h2.5v1H77.4z"/>
			<path class="st0" d="M82.8,40c0.3-0.4,0.8-1.1,1.9-1.1c0.7,0,1.1,0.4,1.1,0.9c0,0.5-0.3,0.9-0.8,0.9c-0.4,0-0.8-0.2-0.8-0.7
				c0-0.2,0-0.3-0.2-0.3c-0.6,0-1.1,1.2-1.2,1.5v2.4c0,0.6,0.2,0.8,0.8,0.8h0.3v0.4h-3.4v-0.4h0.2c0.6,0,0.8-0.2,0.8-0.8v-3.2
				c0-0.6-0.2-0.6-0.5-0.6c-0.2,0-0.4,0-0.5,0.1l-0.1-0.2l2.3-0.6V40z"/>
			<path class="st0" d="M89,44.9c-1.4,0-2.6-1.1-2.6-2.9c0-1.8,1.2-3.2,2.5-3.2c0.6,0,1.1,0.3,1.4,0.6c0.8,0.8,0.8,1.7,0.8,2.1h-3.5
				c-0.1,2,0.9,2.7,1.7,2.7c0.8,0,1.5-0.8,1.7-1.2l0.3,0.2C91.1,43.8,90.4,44.9,89,44.9z M89,39.2c-1.1,0-1.2,1.4-1.3,1.9H90
				C89.9,40.5,89.9,39.2,89,39.2z"/>
			<path class="st0" d="M92.2,36.2l2-0.4v3.5c0.7-0.5,1.2-0.5,1.4-0.5c1.3,0,2.4,1.3,2.4,2.9c0,1.7-1.1,3.1-2.4,3.1
				c-0.7,0-1.1-0.3-1.4-0.6l-0.8,0.6H93V37c0-0.1,0-0.5-0.4-0.5c-0.1,0-0.2,0-0.4,0.1L92.2,36.2z M94.2,43.9c0.4,0.4,0.9,0.5,1,0.5
				c0.6,0,1.3-0.7,1.3-2.5c0-1.4-0.6-2.4-1.4-2.4c-0.2,0-0.5,0-1,0.5V43.9z"/>
			<path class="st0" d="M101.3,44.9c-1.4,0-2.6-1.4-2.6-3c0-1.6,1.2-3,2.6-3c1.4,0,2.6,1.4,2.6,3C103.9,43.5,102.7,44.9,101.3,44.9z
				 M101.3,39.2c-0.8,0-1.2,0.5-1.2,2.9c0,2.4,0.7,2.5,1.2,2.5c0.8,0,1.2-0.5,1.2-2.9C102.5,39.4,101.9,39.2,101.3,39.2z"/>
			<path class="st0" d="M106.8,40c0.3-0.4,0.8-1.1,1.9-1.1c0.7,0,1.1,0.4,1.1,0.9c0,0.5-0.3,0.9-0.8,0.9c-0.4,0-0.8-0.2-0.8-0.7
				c0-0.2,0-0.3-0.2-0.3c-0.7,0-1.1,1.2-1.2,1.5v2.4c0,0.6,0.2,0.8,0.8,0.8h0.3v0.4h-3.4v-0.4h0.2c0.6,0,0.8-0.2,0.8-0.8v-3.2
				c0-0.6-0.2-0.6-0.5-0.6c-0.2,0-0.4,0-0.5,0.1l-0.1-0.2l2.3-0.6V40z"/>
			<path class="st0" d="M110.3,44.3c0.4,0,0.7,0,0.7-0.6v-3.7c0-0.1,0-0.4-0.4-0.4c-0.1,0-0.3,0-0.4,0l-0.1-0.3l2-0.4v1
				c0.3-0.3,0.9-1,1.9-1c0.8,0,1.4,0.7,1.4,1.7v3.1c0,0.3,0.2,0.6,0.5,0.6h0.3v0.4h-2v-4.1c0-0.8-0.5-1-0.8-1
				c-0.6,0-1.1,0.6-1.2,0.8v3.3c0,0.6,0.5,0.6,0.8,0.6v0.4h-2.7V44.3z"/>
			<path class="st0" d="M116.9,42.4v-1h2.5v1H116.9z"/>
			<path class="st0" d="M122.2,40c0.3-0.4,0.8-1.1,1.9-1.1c0.7,0,1.1,0.4,1.1,0.9c0,0.5-0.3,0.9-0.8,0.9c-0.4,0-0.8-0.2-0.8-0.7
				c0-0.2,0-0.3-0.2-0.3c-0.6,0-1.1,1.2-1.2,1.5v2.4c0,0.6,0.2,0.8,0.8,0.8h0.3v0.4H120v-0.4h0.2c0.6,0,0.8-0.2,0.8-0.8v-3.2
				c0-0.6-0.2-0.6-0.5-0.6c-0.2,0-0.4,0-0.5,0.1l-0.1-0.2l2.3-0.6V40z"/>
			<path class="st0" d="M128.5,44.9c-1.4,0-2.6-1.1-2.6-2.9c0-1.8,1.2-3.2,2.5-3.2c0.6,0,1.1,0.3,1.4,0.6c0.8,0.8,0.8,1.7,0.8,2.1
				h-3.5c-0.1,2,0.9,2.7,1.7,2.7c0.8,0,1.5-0.8,1.7-1.2l0.3,0.2C130.5,43.8,129.9,44.9,128.5,44.9z M128.4,39.2
				c-1.1,0-1.2,1.4-1.3,1.9h2.2C129.4,40.5,129.3,39.2,128.4,39.2z"/>
			<path class="st0" d="M134.2,44.9c-1.5,0-2.5-1.2-2.5-2.9c0-1.6,0.9-3.2,2.8-3.2c0.3,0,1.8,0,1.8,1.2c0,0.5-0.4,0.8-0.8,0.8
				c-0.3,0-0.6-0.2-0.6-0.6c0-0.1,0-0.4,0-0.4c0-0.2-0.2-0.5-0.6-0.5c-1,0-1.3,1.5-1.3,2.5c0,1.5,0.7,2.6,1.7,2.6
				c0.7,0,1.1-0.5,1.5-1l0.3,0.3C136.1,44,135.5,44.9,134.2,44.9z"/>
			<path class="st0" d="M143.1,39.5c-0.5,0-0.8,0.5-0.9,0.9l-1.8,4.7c-0.4,0.9-1.1,1.6-1.9,1.6c-0.5,0-0.9-0.3-0.9-0.9
				c0-0.5,0.3-0.8,0.8-0.8c0.5,0,0.6,0.3,0.7,0.6c0.1,0.1,0.2,0.2,0.2,0.2c0.3,0,0.7-0.6,0.8-1l0.1-0.2l-1.9-4.3
				c-0.3-0.6-0.5-0.8-0.8-0.8h-0.2v-0.4h2.9v0.4h-0.3c-0.3,0-0.4,0.1-0.4,0.4c0,0.1,0,0.3,0.1,0.5l1.1,2.7l1-2.6
				c0.1-0.2,0.1-0.4,0.1-0.5c0-0.3-0.2-0.4-0.5-0.4H141v-0.4h2.3v0.4H143.1z"/>
			<path class="st0" d="M146.6,44.9c-1.5,0-2.5-1.2-2.5-2.9c0-1.6,0.9-3.2,2.8-3.2c0.3,0,1.8,0,1.8,1.2c0,0.5-0.4,0.8-0.8,0.8
				c-0.3,0-0.6-0.2-0.6-0.6c0-0.1,0-0.4,0-0.4c0-0.2-0.2-0.5-0.6-0.5c-1,0-1.3,1.5-1.3,2.5c0,1.5,0.7,2.6,1.7,2.6
				c0.7,0,1.1-0.5,1.5-1l0.3,0.3C148.6,44,147.9,44.9,146.6,44.9z"/>
			<path class="st0" d="M149.7,44.3h0.2c0.6,0,0.8-0.3,0.8-0.8V37c0-0.2-0.1-0.5-0.4-0.5c-0.1,0-0.1,0-0.4,0.1l-0.1-0.2l2-0.5v7.7
				c0,0.8,0.4,0.8,0.9,0.8v0.4h-3.1V44.3z"/>
			<path class="st0" d="M156.1,44.9c-1.4,0-2.6-1.1-2.6-2.9c0-1.8,1.2-3.2,2.5-3.2c0.6,0,1.1,0.3,1.4,0.6c0.8,0.8,0.8,1.7,0.8,2.1
				h-3.5c-0.1,2,0.9,2.7,1.7,2.7c0.8,0,1.5-0.8,1.7-1.2l0.3,0.2C158.2,43.8,157.5,44.9,156.1,44.9z M156.1,39.2
				c-1.1,0-1.2,1.4-1.3,1.9h2.2C157,40.5,157,39.2,156.1,39.2z"/>
		</g>
		<g>
			<path class="st1" d="M60.1,44.3h0.2c0.6,0,0.8-0.3,0.8-0.8V37c0-0.2-0.1-0.5-0.4-0.5c-0.1,0-0.1,0-0.4,0.1l-0.1-0.2l2-0.5v7.7
				c0,0.8,0.4,0.8,0.9,0.8v0.4h-3.1V44.3z"/>
			<path class="st1" d="M63.7,44.3h0.4c0.4,0,0.6-0.3,0.6-0.6v-3.5c0-0.3-0.1-0.6-0.4-0.6c0,0-0.2,0-0.4,0.1l-0.1-0.3l2.1-0.5v4.8
				c0,0.4,0.2,0.6,0.6,0.6h0.4v0.4h-3.2V44.3z M66.1,36.7c0,0.5-0.4,0.8-0.8,0.8c-0.5,0-0.8-0.4-0.8-0.8c0-0.5,0.4-0.8,0.8-0.8
				C65.7,35.8,66.1,36.2,66.1,36.7z"/>
			<path class="st1" d="M69.6,39.1h1.5v0.4h-1.5v4c0,0.6,0.2,0.8,0.8,0.8h0.3v0.4h-3.3v-0.4h0.3c0.5,0,0.8-0.2,0.8-0.8v-4h-1v-0.4h1
				v-0.2c0-2.3,1.3-3,2.4-3c0.5,0,1,0.1,1,0.8c0,0.4-0.2,0.7-0.7,0.7c-0.5,0-0.6-0.3-0.7-0.7c0-0.1-0.1-0.3-0.3-0.3
				c-0.4,0-0.6,0.6-0.6,1.4V39.1z"/>
			<path class="st1" d="M74.5,44.9c-1.4,0-2.6-1.1-2.6-2.9c0-1.8,1.2-3.2,2.5-3.2c0.6,0,1.1,0.3,1.4,0.6c0.8,0.8,0.8,1.7,0.8,2.1
				h-3.5c-0.1,2,0.9,2.7,1.7,2.7c0.8,0,1.5-0.8,1.7-1.2l0.3,0.2C76.5,43.8,75.9,44.9,74.5,44.9z M74.4,39.2c-1.1,0-1.2,1.4-1.3,1.9
				h2.2C75.4,40.5,75.3,39.2,74.4,39.2z"/>
			<path class="st1" d="M77.4,42.4v-1h2.5v1H77.4z"/>
			<path class="st1" d="M82.8,40c0.3-0.4,0.8-1.1,1.9-1.1c0.7,0,1.1,0.4,1.1,0.9c0,0.5-0.3,0.9-0.8,0.9c-0.4,0-0.8-0.2-0.8-0.7
				c0-0.2,0-0.3-0.2-0.3c-0.6,0-1.1,1.2-1.2,1.5v2.4c0,0.6,0.2,0.8,0.8,0.8h0.3v0.4h-3.4v-0.4h0.2c0.6,0,0.8-0.2,0.8-0.8v-3.2
				c0-0.6-0.2-0.6-0.5-0.6c-0.2,0-0.4,0-0.5,0.1l-0.1-0.2l2.3-0.6V40z"/>
			<path class="st1" d="M89,44.9c-1.4,0-2.6-1.1-2.6-2.9c0-1.8,1.2-3.2,2.5-3.2c0.6,0,1.1,0.3,1.4,0.6c0.8,0.8,0.8,1.7,0.8,2.1h-3.5
				c-0.1,2,0.9,2.7,1.7,2.7c0.8,0,1.5-0.8,1.7-1.2l0.3,0.2C91.1,43.8,90.4,44.9,89,44.9z M89,39.2c-1.1,0-1.2,1.4-1.3,1.9H90
				C89.9,40.5,89.9,39.2,89,39.2z"/>
			<path class="st1" d="M92.2,36.2l2-0.4v3.5c0.7-0.5,1.2-0.5,1.4-0.5c1.3,0,2.4,1.3,2.4,2.9c0,1.7-1.1,3.1-2.4,3.1
				c-0.7,0-1.1-0.3-1.4-0.6l-0.8,0.6H93V37c0-0.1,0-0.5-0.4-0.5c-0.1,0-0.2,0-0.4,0.1L92.2,36.2z M94.2,43.9c0.4,0.4,0.9,0.5,1,0.5
				c0.6,0,1.3-0.7,1.3-2.5c0-1.4-0.6-2.4-1.4-2.4c-0.2,0-0.5,0-1,0.5V43.9z"/>
			<path class="st1" d="M101.3,44.9c-1.4,0-2.6-1.4-2.6-3c0-1.6,1.2-3,2.6-3c1.4,0,2.6,1.4,2.6,3C103.9,43.5,102.7,44.9,101.3,44.9z
				 M101.3,39.2c-0.8,0-1.2,0.5-1.2,2.9c0,2.4,0.7,2.5,1.2,2.5c0.8,0,1.2-0.5,1.2-2.9C102.5,39.4,101.9,39.2,101.3,39.2z"/>
			<path class="st1" d="M106.8,40c0.3-0.4,0.8-1.1,1.9-1.1c0.7,0,1.1,0.4,1.1,0.9c0,0.5-0.3,0.9-0.8,0.9c-0.4,0-0.8-0.2-0.8-0.7
				c0-0.2,0-0.3-0.2-0.3c-0.7,0-1.1,1.2-1.2,1.5v2.4c0,0.6,0.2,0.8,0.8,0.8h0.3v0.4h-3.4v-0.4h0.2c0.6,0,0.8-0.2,0.8-0.8v-3.2
				c0-0.6-0.2-0.6-0.5-0.6c-0.2,0-0.4,0-0.5,0.1l-0.1-0.2l2.3-0.6V40z"/>
			<path class="st1" d="M110.3,44.3c0.4,0,0.7,0,0.7-0.6v-3.7c0-0.1,0-0.4-0.4-0.4c-0.1,0-0.3,0-0.4,0l-0.1-0.3l2-0.4v1
				c0.3-0.3,0.9-1,1.9-1c0.8,0,1.4,0.7,1.4,1.7v3.1c0,0.3,0.2,0.6,0.5,0.6h0.3v0.4h-2v-4.1c0-0.8-0.5-1-0.8-1
				c-0.6,0-1.1,0.6-1.2,0.8v3.3c0,0.6,0.5,0.6,0.8,0.6v0.4h-2.7V44.3z"/>
			<path class="st1" d="M116.9,42.4v-1h2.5v1H116.9z"/>
			<path class="st1" d="M122.2,40c0.3-0.4,0.8-1.1,1.9-1.1c0.7,0,1.1,0.4,1.1,0.9c0,0.5-0.3,0.9-0.8,0.9c-0.4,0-0.8-0.2-0.8-0.7
				c0-0.2,0-0.3-0.2-0.3c-0.6,0-1.1,1.2-1.2,1.5v2.4c0,0.6,0.2,0.8,0.8,0.8h0.3v0.4H120v-0.4h0.2c0.6,0,0.8-0.2,0.8-0.8v-3.2
				c0-0.6-0.2-0.6-0.5-0.6c-0.2,0-0.4,0-0.5,0.1l-0.1-0.2l2.3-0.6V40z"/>
			<path class="st1" d="M128.5,44.9c-1.4,0-2.6-1.1-2.6-2.9c0-1.8,1.2-3.2,2.5-3.2c0.6,0,1.1,0.3,1.4,0.6c0.8,0.8,0.8,1.7,0.8,2.1
				h-3.5c-0.1,2,0.9,2.7,1.7,2.7c0.8,0,1.5-0.8,1.7-1.2l0.3,0.2C130.5,43.8,129.9,44.9,128.5,44.9z M128.4,39.2
				c-1.1,0-1.2,1.4-1.3,1.9h2.2C129.4,40.5,129.3,39.2,128.4,39.2z"/>
			<path class="st1" d="M134.2,44.9c-1.5,0-2.5-1.2-2.5-2.9c0-1.6,0.9-3.2,2.8-3.2c0.3,0,1.8,0,1.8,1.2c0,0.5-0.4,0.8-0.8,0.8
				c-0.3,0-0.6-0.2-0.6-0.6c0-0.1,0-0.4,0-0.4c0-0.2-0.2-0.5-0.6-0.5c-1,0-1.3,1.5-1.3,2.5c0,1.5,0.7,2.6,1.7,2.6
				c0.7,0,1.1-0.5,1.5-1l0.3,0.3C136.1,44,135.5,44.9,134.2,44.9z"/>
			<path class="st1" d="M143.1,39.5c-0.5,0-0.8,0.5-0.9,0.9l-1.8,4.7c-0.4,0.9-1.1,1.6-1.9,1.6c-0.5,0-0.9-0.3-0.9-0.9
				c0-0.5,0.3-0.8,0.8-0.8c0.5,0,0.6,0.3,0.7,0.6c0.1,0.1,0.2,0.2,0.2,0.2c0.3,0,0.7-0.6,0.8-1l0.1-0.2l-1.9-4.3
				c-0.3-0.6-0.5-0.8-0.8-0.8h-0.2v-0.4h2.9v0.4h-0.3c-0.3,0-0.4,0.1-0.4,0.4c0,0.1,0,0.3,0.1,0.5l1.1,2.7l1-2.6
				c0.1-0.2,0.1-0.4,0.1-0.5c0-0.3-0.2-0.4-0.5-0.4H141v-0.4h2.3v0.4H143.1z"/>
			<path class="st1" d="M146.6,44.9c-1.5,0-2.5-1.2-2.5-2.9c0-1.6,0.9-3.2,2.8-3.2c0.3,0,1.8,0,1.8,1.2c0,0.5-0.4,0.8-0.8,0.8
				c-0.3,0-0.6-0.2-0.6-0.6c0-0.1,0-0.4,0-0.4c0-0.2-0.2-0.5-0.6-0.5c-1,0-1.3,1.5-1.3,2.5c0,1.5,0.7,2.6,1.7,2.6
				c0.7,0,1.1-0.5,1.5-1l0.3,0.3C148.6,44,147.9,44.9,146.6,44.9z"/>
			<path class="st1" d="M149.7,44.3h0.2c0.6,0,0.8-0.3,0.8-0.8V37c0-0.2-0.1-0.5-0.4-0.5c-0.1,0-0.1,0-0.4,0.1l-0.1-0.2l2-0.5v7.7
				c0,0.8,0.4,0.8,0.9,0.8v0.4h-3.1V44.3z"/>
			<path class="st1" d="M156.1,44.9c-1.4,0-2.6-1.1-2.6-2.9c0-1.8,1.2-3.2,2.5-3.2c0.6,0,1.1,0.3,1.4,0.6c0.8,0.8,0.8,1.7,0.8,2.1
				h-3.5c-0.1,2,0.9,2.7,1.7,2.7c0.8,0,1.5-0.8,1.7-1.2l0.3,0.2C158.2,43.8,157.5,44.9,156.1,44.9z M156.1,39.2
				c-1.1,0-1.2,1.4-1.3,1.9h2.2C157,40.5,157,39.2,156.1,39.2z"/>
		</g>
	</g>
	<g>
		<g>
			<path class="st0" d="M49.8,44.6l-4.3-2.3L41,44.8c0-0.8-0.1-3,0-3.9l4.6-2.5l4.3,2.3V44.6z"/>
		</g>
	</g>
	<g>
		<polygon class="st0" points="10.1,8 10.1,3.5 5.7,1.1 1.1,3.7 1.1,8.1 5.7,5.6 		"/>
		<path class="st0" d="M49.6,27.6c-0.8-5.3-4.5-6.6-7.8-7.3c4.2-1.5,6.3-4.6,6.4-9.4c0-0.5,0-2.2-1-4C46,4.8,42.9,1.4,34.3,1h-15
			v36.3h-9.2V11.8L5.7,9.5l-4.6,2.4v33h27.1l0.1-21H32c1.8,0,7.2,0.8,8.3,4c1.1,3.1,0.8,7.8,0.8,8.7l4.1-2.5l4.7,2.3
			C49.9,36.3,49.9,29.7,49.6,27.6z M39.2,12c0,1.5-0.5,2.8-1.4,3.7c-0.9,0.9-2.1,1.4-3.6,1.4h-6V6.9h6c1.8,0,3.1,0.5,3.9,1.6
			C39,9.4,39.4,10.6,39.2,12z"/>
	</g>
</g>
<g id="_x30_0">
</g>
</svg>
