<svg xmlns="http://www.w3.org/2000/svg" xmlns:xlink="http://www.w3.org/1999/xlink" viewBox="0 0 87.38 83.26"><defs><style>.cls-1{fill:none;}.cls-2{clip-path:url(#clip-path);}.cls-3{fill:#fff;}</style><clipPath id="clip-path" transform="translate(0 0)"><rect class="cls-1" width="87.38" height="83.26"/></clipPath></defs><title>Asset 1</title><g id="Layer_2" data-name="Layer 2"><g id="Layer_1-2" data-name="Layer 1"><g class="cls-2"><path class="cls-3" d="M87.38,35.46C87.38,15.9,67.78,0,43.69,0S0,15.9,0,35.46c0,17.52,15.54,32.2,36.54,35,1.42.3,3.36.93,3.85,2.15a8.93,8.93,0,0,1,.14,4l-.62,3.74c-.19,1.1-.88,4.32,3.78,2.36S68.85,67.82,78,57.27h0c6.33-6.94,9.36-14,9.36-21.81M28.28,45.89a.85.85,0,0,1-.85.85H15.18a.89.89,0,0,1-.59-.23h0v0a.83.83,0,0,1-.24-.59h0v-19a.85.85,0,0,1,.85-.85h3.07a.85.85,0,0,1,.85.85V42h8.33a.85.85,0,0,1,.85.85Zm7.38,0a.85.85,0,0,1-.85.85H31.75a.85.85,0,0,1-.85-.85v-19a.85.85,0,0,1,.85-.85h3.06a.85.85,0,0,1,.85.85Zm21.1,0a.85.85,0,0,1-.85.85H52.84a.83.83,0,0,1-.22,0h0l-.06,0h-.06l0,0,0,0-.05,0h0a.7.7,0,0,1-.21-.21L43.41,34.59v11.3a.85.85,0,0,1-.85.85H39.49a.86.86,0,0,1-.85-.85v-19a.86.86,0,0,1,.85-.85h3.3l.05,0h0l.05,0h0l0,0h0l0,0s0,0,0,0l.05,0h0l.06.05h0l.07.09L52,38.17V26.86a.85.85,0,0,1,.85-.85h3.07a.85.85,0,0,1,.85.85Zm16.92-16a.85.85,0,0,1-.85.85H64.5V34h8.33a.85.85,0,0,1,.85.85v3.07a.85.85,0,0,1-.85.85H64.5V42h8.33a.85.85,0,0,1,.85.85v3.06a.85.85,0,0,1-.85.85H60.59a.87.87,0,0,1-.59-.23h0v0a.83.83,0,0,1-.24-.59h0v-19h0a.87.87,0,0,1,.23-.59h0a.83.83,0,0,1,.59-.24H72.83a.85.85,0,0,1,.85.85Z" transform="translate(0 0)"/></g></g></g></svg>