<?xml version="1.0" encoding="utf-8"?>
<!-- Generator: Adobe Illustrator 25.1.0, SVG Export Plug-In . SVG Version: 6.00 Build 0)  -->
<svg version="1.1" id="レイヤー_1" xmlns="http://www.w3.org/2000/svg" xmlns:xlink="http://www.w3.org/1999/xlink" x="0px"
	 y="0px" viewBox="0 0 54.8 52" style="enable-background:new 0 0 54.8 52;" xml:space="preserve">
<style type="text/css">
	.st0{fill:#FFFFFF;}
</style>
<g>
	<path class="st0" d="M52.3,15.8l-1.6-1.6c-1.8-1.8-4.6-1.8-6.4,0l-3.9,3.9V2.6c0-0.8-0.7-1.5-1.5-1.5H19h-0.1c-0.1,0-0.2,0-0.3,0.1
		h-0.1c-0.2,0.1-0.3,0.1-0.4,0.3L1.8,16.1c-0.1,0.1-0.2,0.2-0.3,0.3c0,0,0,0.1-0.1,0.1c-0.1,0.1-0.1,0.2-0.1,0.3c0,0,0,0,0,0.1
		s0,0.2,0,0.3v32.4C1.3,50.4,2,51,2.8,51h36.1c0.8,0,1.5-0.7,1.5-1.5V34.1l11.9-11.9C54.1,20.4,54.1,17.6,52.3,15.8z M48.6,16.3
		l1.6,1.6c0.6,0.6,0.6,1.5,0,2.1l-1,1l-3.8-3.8l1-1C47,15.7,48,15.7,48.6,16.3L48.6,16.3z M31.4,38.9l-5.1,1.3l1.3-5l15.7-15.7
		l3.8,3.8L31.4,38.9z M15.4,7.9L17.5,6v9.7H6.7L15.4,7.9z M37.4,48H4.3V18.7H19c0.8,0,1.5-0.7,1.5-1.5v-13h16.9v17L25.2,33.3
		c-0.2,0.2-0.3,0.4-0.4,0.7l-2,7.9c-0.2,0.8,0.3,1.6,1.1,1.8c0.2,0.1,0.5,0.1,0.7,0l7.9-2c0.3-0.1,0.5-0.2,0.7-0.4l4.2-4.2
		C37.4,37.1,37.4,48,37.4,48z"/>
</g>
</svg>
